<svg xmlns="http://www.w3.org/2000/svg" version="1.1" xmlns:xlink="http://www.w3.org/1999/xlink" xmlns:svgjs="http://svgjs.dev/svgjs" width="1000" height="1000" viewBox="0 0 1000 1000"><rect width="1000" height="1000" fill="#7c4e29"></rect><g transform="matrix(0.7,0,0,0.7,149.57575757575756,282.1265587044535)"><svg viewBox="0 0 396 247" data-background-color="#7c4e29" preserveAspectRatio="xMidYMid meet" height="623" width="1000" xmlns="http://www.w3.org/2000/svg" xmlns:xlink="http://www.w3.org/1999/xlink"><g id="tight-bounds" transform="matrix(1,0,0,1,0.2400000000000091,-0.09999999999999432)"><svg viewBox="0 0 395.52 247.2" height="247.2" width="395.52"><g><svg></svg></g><g><svg viewBox="0 0 395.52 247.2" height="247.2" width="395.52"><g transform="matrix(1,0,0,1,39.55199999999999,109.19377507598783)"><svg viewBox="0 0 316.416 28.81244984802432" height="28.81244984802432" width="316.416"><g><svg viewBox="0 0 316.416 28.81244984802432" height="28.81244984802432" width="316.416"><g><svg viewBox="0 0 316.416 28.81244984802432" height="28.81244984802432" width="316.416"><g><svg viewBox="0 0 316.416 28.81244984802432" height="28.81244984802432" width="316.416"><g id="textblocktransform"><svg viewBox="0 0 316.416 28.81244984802432" height="28.81244984802432" width="316.416" id="textblock"><g><svg viewBox="0 0 316.416 28.81244984802432" height="28.81244984802432" width="316.416"><g transform="matrix(1,0,0,1,0,0)"><svg width="316.416" viewBox="1.100000023841858 -35.04999923706055 394.7599792480469 35.95000076293945" height="28.81244984802432" data-palette-color="#e6b17e"><path d="M13.8 0L1.1 0 1.1-0.5 2.1-0.9Q3.1-1.25 3.43-1.85 3.75-2.45 3.75-3.4L3.75-3.4 3.75-29.55Q3.75-30.55 3.43-31.15 3.1-31.75 2.1-32.1L2.1-32.1 1.1-32.5 1.1-33 13.8-33 13.8-32.5 12.95-32.15Q12-31.8 11.65-31.23 11.3-30.65 11.3-29.65L11.3-29.65 11.3-17.5 23.25-17.5 23.25-29.65Q23.25-30.65 22.93-31.23 22.6-31.8 21.6-32.15L21.6-32.15 20.7-32.5 20.7-33 33.45-33 33.45-32.5 32.45-32.1Q31.5-31.75 31.15-31.15 30.8-30.55 30.8-29.55L30.8-29.55 30.8-3.4Q30.8-2.45 31.15-1.85 31.5-1.25 32.45-0.9L32.45-0.9 33.45-0.5 33.45 0 20.7 0 20.7-0.5 21.6-0.8Q22.6-1.2 22.93-1.78 23.25-2.35 23.25-3.35L23.25-3.35 23.25-16.5 11.3-16.5 11.3-3.35Q11.3-1.5 12.95-0.8L12.95-0.8 13.8-0.5 13.8 0ZM42.85 0.75L42.85 0.75Q39.95 0.75 37.97-0.9 36-2.55 36-5.65L36-5.65Q36-8 38.4-9.98 40.8-11.95 45.95-12.95L45.95-12.95Q46.75-13.1 47.75-13.28 48.75-13.45 49.85-13.65L49.85-13.65 49.85-17.6Q49.85-21 49.02-22.38 48.2-23.75 46.45-23.75L46.45-23.75Q45.25-23.75 44.55-22.98 43.85-22.2 43.65-20.3L43.65-20.3 43.55-19.75Q43.45-17.6 42.5-16.6 41.55-15.6 40.15-15.6L40.15-15.6Q38.85-15.6 38-16.4 37.15-17.2 37.15-18.55L37.15-18.55Q37.15-20.6 38.57-22 40-23.4 42.35-24.1 44.7-24.8 47.45-24.8L47.45-24.8Q51.9-24.8 54.32-22.63 56.75-20.45 56.75-15.55L56.75-15.55 56.75-4.5Q56.75-2.25 58.85-2.25L58.85-2.25 59.95-2.25 60.4-1.85Q59.45-0.65 58.32 0 57.2 0.65 55.15 0.65L55.15 0.65Q52.95 0.65 51.67-0.38 50.4-1.4 50-3.1L50-3.1Q48.5-1.5 46.92-0.38 45.35 0.75 42.85 0.75ZM45.9-2.3L45.9-2.3Q46.9-2.3 47.77-2.78 48.65-3.25 49.85-4.25L49.85-4.25 49.85-12.65Q49.35-12.55 48.85-12.45 48.35-12.35 47.7-12.25L47.7-12.25Q45.4-11.65 44.02-10.23 42.65-8.8 42.65-6.4L42.65-6.4Q42.65-4.35 43.6-3.33 44.55-2.3 45.9-2.3ZM73.2 0L61.45 0 61.45-0.5 62.15-0.7Q63.1-0.95 63.47-1.55 63.85-2.15 63.9-3.15L63.9-3.15 63.9-18.8Q63.9-19.9 63.55-20.43 63.2-20.95 62.2-21.15L62.2-21.15 61.45-21.35 61.45-21.85 70-24.75 70.5-24.25 70.9-20.85Q72.55-22.5 74.67-23.65 76.8-24.8 79.1-24.8L79.1-24.8Q81.5-24.8 82.95-23.83 84.4-22.85 85.15-20.8L85.15-20.8Q87.1-22.65 89.37-23.73 91.65-24.8 93.8-24.8L93.8-24.8Q97.34-24.8 99.02-23.1 100.7-21.4 100.7-17.75L100.7-17.75 100.7-3.1Q100.7-1.15 102.5-0.65L102.5-0.65 103.05-0.5 103.05 0 91.5 0 91.5-0.5 92-0.65Q92.95-0.95 93.32-1.55 93.7-2.15 93.7-3.15L93.7-3.15 93.7-18.45Q93.7-20.55 92.95-21.33 92.2-22.1 90.55-22.1L90.55-22.1Q89.25-22.1 88.02-21.53 86.8-20.95 85.45-19.8L85.45-19.8Q85.7-19 85.77-18.05 85.85-17.1 85.85-16.05L85.85-16.05 85.85-3.1Q85.9-1.15 87.65-0.65L87.65-0.65 88.1-0.5 88.1 0 76.5 0 76.5-0.5 77.2-0.7Q78.15-1 78.52-1.58 78.9-2.15 78.9-3.15L78.9-3.15 78.9-18.4Q78.9-20.4 78.17-21.25 77.45-22.1 75.7-22.1L75.7-22.1Q74.55-22.1 73.4-21.53 72.25-20.95 71-19.85L71-19.85 71-3.1Q71-1.15 72.75-0.65L72.75-0.65 73.2-0.5 73.2 0ZM117.94 0L104.99 0 104.99-0.5 105.74-0.7Q106.74-1 107.12-1.6 107.49-2.2 107.49-3.15L107.49-3.15 107.49-18.8Q107.49-19.9 107.12-20.43 106.74-20.95 105.74-21.15L105.74-21.15 104.99-21.35 104.99-21.85 113.59-24.75 114.09-24.25 114.54-19.95 114.54-19.55Q115.24-20.95 116.37-22.13 117.49-23.3 118.87-24.05 120.24-24.8 121.59-24.8L121.59-24.8Q123.49-24.8 124.49-23.75 125.49-22.7 125.49-21.1L125.49-21.1Q125.49-19.4 124.52-18.48 123.54-17.55 122.19-17.55L122.19-17.55Q120.09-17.55 118.49-19.65L118.49-19.65 118.39-19.75Q117.89-20.45 117.24-20.53 116.59-20.6 116.04-19.9L116.04-19.9Q115.54-19.45 115.22-18.82 114.89-18.2 114.59-17.4L114.59-17.4 114.59-3.45Q114.59-1.45 116.34-0.95L116.34-0.95 117.94-0.5 117.94 0ZM139.69 0.75L139.69 0.75Q135.89 0.75 133.09-0.83 130.29-2.4 128.77-5.3 127.24-8.2 127.24-12.1L127.24-12.1Q127.24-16 128.87-18.85 130.49-21.7 133.31-23.25 136.14-24.8 139.69-24.8L139.69-24.8Q143.24-24.8 146.04-23.28 148.84-21.75 150.47-18.9 152.09-16.05 152.09-12.1L152.09-12.1Q152.09-8.15 150.56-5.28 149.04-2.4 146.27-0.83 143.49 0.75 139.69 0.75ZM139.69-0.25L139.69-0.25Q141.44-0.25 142.49-1.25 143.54-2.25 144.02-4.8 144.49-7.35 144.49-12L144.49-12Q144.49-16.7 144.02-19.25 143.54-21.8 142.49-22.8 141.44-23.8 139.69-23.8L139.69-23.8Q137.94-23.8 136.87-22.8 135.79-21.8 135.31-19.25 134.84-16.7 134.84-12L134.84-12Q134.84-7.35 135.31-4.8 135.79-2.25 136.87-1.25 137.94-0.25 139.69-0.25ZM182.49 0.9L182.49 0.9Q177.64 0.9 173.71-1.07 169.79-3.05 167.49-6.95 165.19-10.85 165.19-16.5L165.19-16.5Q165.19-20.8 166.59-24.05 167.99-27.3 170.41-29.5 172.84-31.7 176.01-32.8 179.19-33.9 182.74-33.9L182.74-33.9Q185.59-33.9 187.99-33.25 190.39-32.6 192.49-31.45L192.49-31.45 192.69-25.3 192.19-25.3 189.69-29.3Q189.19-30.25 188.59-31.03 187.99-31.8 187.09-32.2L187.09-32.2Q186.34-32.55 185.61-32.73 184.89-32.9 183.79-32.9L183.79-32.9Q180.89-32.9 178.51-31.35 176.14-29.8 174.71-26.23 173.29-22.65 173.29-16.45L173.29-16.45Q173.29-10.3 174.64-6.73 175.99-3.15 178.31-1.63 180.64-0.1 183.54-0.1L183.54-0.1Q185.14-0.1 186.09-0.33 187.04-0.55 187.99-1L187.99-1Q188.94-1.4 189.44-2.18 189.94-2.95 190.34-3.85L190.34-3.85 192.54-8.75 193.04-8.75 192.89-1.6Q190.79-0.5 188.19 0.2 185.59 0.9 182.49 0.9ZM202.63 0.75L202.63 0.75Q199.73 0.75 197.76-0.9 195.78-2.55 195.78-5.65L195.78-5.65Q195.78-8 198.18-9.98 200.58-11.95 205.73-12.95L205.73-12.95Q206.53-13.1 207.53-13.28 208.53-13.45 209.63-13.65L209.63-13.65 209.63-17.6Q209.63-21 208.81-22.38 207.98-23.75 206.23-23.75L206.23-23.75Q205.03-23.75 204.33-22.98 203.63-22.2 203.43-20.3L203.43-20.3 203.33-19.75Q203.23-17.6 202.28-16.6 201.33-15.6 199.93-15.6L199.93-15.6Q198.63-15.6 197.78-16.4 196.93-17.2 196.93-18.55L196.93-18.55Q196.93-20.6 198.36-22 199.78-23.4 202.13-24.1 204.48-24.8 207.23-24.8L207.23-24.8Q211.68-24.8 214.11-22.63 216.53-20.45 216.53-15.55L216.53-15.55 216.53-4.5Q216.53-2.25 218.63-2.25L218.63-2.25 219.73-2.25 220.18-1.85Q219.23-0.65 218.11 0 216.98 0.65 214.93 0.65L214.93 0.65Q212.73 0.65 211.46-0.38 210.18-1.4 209.78-3.1L209.78-3.1Q208.28-1.5 206.71-0.38 205.13 0.75 202.63 0.75ZM205.68-2.3L205.68-2.3Q206.68-2.3 207.56-2.78 208.43-3.25 209.63-4.25L209.63-4.25 209.63-12.65Q209.13-12.55 208.63-12.45 208.13-12.35 207.48-12.25L207.48-12.25Q205.18-11.65 203.81-10.23 202.43-8.8 202.43-6.4L202.43-6.4Q202.43-4.35 203.38-3.33 204.33-2.3 205.68-2.3ZM234.18 0L221.23 0 221.23-0.5 221.98-0.7Q222.98-1 223.36-1.6 223.73-2.2 223.73-3.15L223.73-3.15 223.73-18.8Q223.73-19.9 223.36-20.43 222.98-20.95 221.98-21.15L221.98-21.15 221.23-21.35 221.23-21.85 229.83-24.75 230.33-24.25 230.78-19.95 230.78-19.55Q231.48-20.95 232.61-22.13 233.73-23.3 235.11-24.05 236.48-24.8 237.83-24.8L237.83-24.8Q239.73-24.8 240.73-23.75 241.73-22.7 241.73-21.1L241.73-21.1Q241.73-19.4 240.76-18.48 239.78-17.55 238.43-17.55L238.43-17.55Q236.33-17.55 234.73-19.65L234.73-19.65 234.63-19.75Q234.13-20.45 233.48-20.53 232.83-20.6 232.28-19.9L232.28-19.9Q231.78-19.45 231.46-18.82 231.13-18.2 230.83-17.4L230.83-17.4 230.83-3.45Q230.83-1.45 232.58-0.95L232.58-0.95 234.18-0.5 234.18 0ZM267.08 0L254.28 0 254.28-0.5 255.33-0.85Q256.33-1.2 256.63-1.78 256.93-2.35 256.93-3.4L256.93-3.4 256.93-29.55Q256.93-30.55 256.65-31.13 256.38-31.7 255.43-32.05L255.43-32.05 254.28-32.5 254.28-33 268.58-33Q274.48-33 277.63-30.78 280.78-28.55 280.78-24.6L280.78-24.6Q280.78-22.4 279.13-20.2 277.48-18 273.93-16.8L273.93-16.8 280.88-3Q281.33-2.15 281.9-1.63 282.48-1.1 283.43-0.7L283.43-0.7 284.08-0.45 284.08 0 275.13 0 267.73-15.75 264.33-15.75 264.33-3.4Q264.33-2.45 264.63-1.85 264.93-1.25 265.88-0.95L265.88-0.95 267.08-0.5 267.08 0ZM264.33-32L264.33-16.75 266.73-16.75Q270.33-16.75 271.93-18.68 273.53-20.6 273.53-24.4L273.53-24.4Q273.53-28.25 272.03-30.13 270.53-32 266.98-32L266.98-32 264.33-32ZM298.12-24.8L298.12-24.8Q301.37-24.8 303.67-23.48 305.97-22.15 307.2-19.88 308.42-17.6 308.42-14.7L308.42-14.7Q308.42-14.15 308.37-13.58 308.32-13 308.17-12.55L308.17-12.55 293.27-12.55Q293.32-7.15 295.2-4.78 297.07-2.4 300.77-2.4L300.77-2.4Q303.27-2.4 304.82-3.2 306.37-4 307.72-5.55L307.72-5.55 308.22-5.1Q306.67-2.35 304.1-0.8 301.52 0.75 297.92 0.75L297.92 0.75Q294.37 0.75 291.62-0.78 288.87-2.3 287.32-5.15 285.77-8 285.77-11.95L285.77-11.95Q285.77-16.05 287.57-18.93 289.37-21.8 292.2-23.3 295.02-24.8 298.12-24.8ZM297.97-23.8L297.97-23.8Q296.52-23.8 295.5-22.93 294.47-22.05 293.9-19.83 293.32-17.6 293.27-13.55L293.27-13.55 301.82-13.55Q302.32-19 301.42-21.4 300.52-23.8 297.97-23.8ZM322.67 0L310.92 0 310.92-0.5 311.62-0.7Q313.37-1.2 313.37-3.15L313.37-3.15 313.37-18.8Q313.37-19.9 313.02-20.43 312.67-20.95 311.67-21.15L311.67-21.15 310.92-21.35 310.92-21.85 319.47-24.75 319.97-24.25 320.37-21.25Q322.12-22.8 324.32-23.8 326.52-24.8 328.67-24.8L328.67-24.8Q331.97-24.8 333.75-23 335.52-21.2 335.52-17.5L335.52-17.5 335.52-3.1Q335.52-1.15 337.42-0.65L337.42-0.65 337.87-0.5 337.87 0 326.07 0 326.07-0.5 326.72-0.7Q328.47-1.25 328.47-3.15L328.47-3.15 328.47-19.1Q328.47-22.3 325.27-22.3L325.27-22.3Q323.07-22.3 320.47-20.1L320.47-20.1 320.47-3.1Q320.47-1.15 322.22-0.65L322.22-0.65 322.67-0.5 322.67 0ZM349.32 0.75L349.32 0.75Q346.12 0.75 344.34-0.85 342.57-2.45 342.57-5.95L342.57-5.95 342.57-23.05 339.12-23.05 339.12-23.55 340.32-23.75Q341.87-24.1 342.99-24.75 344.12-25.4 345.22-26.5L345.22-26.5 349.32-31.05 349.82-31.05 349.67-24.05 355.27-24.05 355.27-23.05 349.62-23.05 349.62-5.05Q349.62-3.3 350.39-2.4 351.17-1.5 352.37-1.5L352.37-1.5Q353.42-1.5 354.22-2.02 355.02-2.55 355.82-3.45L355.82-3.45 356.32-2.95Q355.32-1.25 353.57-0.25 351.82 0.75 349.32 0.75ZM365.17 0.75L365.17 0.75Q362.27 0.75 360.29-0.9 358.32-2.55 358.32-5.65L358.32-5.65Q358.32-8 360.72-9.98 363.12-11.95 368.27-12.95L368.27-12.95Q369.07-13.1 370.07-13.28 371.07-13.45 372.17-13.65L372.17-13.65 372.17-17.6Q372.17-21 371.34-22.38 370.52-23.75 368.77-23.75L368.77-23.75Q367.57-23.75 366.87-22.98 366.17-22.2 365.97-20.3L365.97-20.3 365.87-19.75Q365.77-17.6 364.82-16.6 363.87-15.6 362.47-15.6L362.47-15.6Q361.17-15.6 360.32-16.4 359.47-17.2 359.47-18.55L359.47-18.55Q359.47-20.6 360.89-22 362.32-23.4 364.67-24.1 367.02-24.8 369.77-24.8L369.77-24.8Q374.22-24.8 376.64-22.63 379.07-20.45 379.07-15.55L379.07-15.55 379.07-4.5Q379.07-2.25 381.17-2.25L381.17-2.25 382.27-2.25 382.72-1.85Q381.77-0.65 380.64 0 379.52 0.65 377.47 0.65L377.47 0.65Q375.27 0.65 373.99-0.38 372.72-1.4 372.32-3.1L372.32-3.1Q370.82-1.5 369.24-0.38 367.67 0.75 365.17 0.75ZM368.22-2.3L368.22-2.3Q369.22-2.3 370.09-2.78 370.97-3.25 372.17-4.25L372.17-4.25 372.17-12.65Q371.67-12.55 371.17-12.45 370.67-12.35 370.02-12.25L370.02-12.25Q367.72-11.65 366.34-10.23 364.97-8.8 364.97-6.4L364.97-6.4Q364.97-4.35 365.92-3.33 366.87-2.3 368.22-2.3ZM395.86 0L383.91 0 383.91-0.5 384.51-0.7Q386.31-1.3 386.31-3.2L386.31-3.2 386.31-29.95Q386.31-30.95 385.91-31.48 385.51-32 384.51-32.25L384.51-32.25 383.86-32.4 383.86-32.9 393.01-35.05 393.61-34.6 393.41-27.6 393.41-10.5Q393.41-8.65 393.44-6.83 393.46-5 393.46-3.2L393.46-3.2Q393.46-2.2 393.86-1.58 394.26-0.95 395.21-0.65L395.21-0.65 395.86-0.5 395.86 0Z" opacity="1" transform="matrix(1,0,0,1,0,0)" fill="#e6b17e" class="undefined-text-0" data-fill-palette-color="primary" id="text-0"></path></svg></g></svg></g></svg></g></svg></g><g></g></svg></g></svg></g></svg></g><g mask="url(&quot;#c0b7b23f-3ab9-4fa5-8a6c-93ccacc759f8&quot;)"><g transform="matrix(3.1287880372064514, 0, 0, 3.1287880372064514, 44.4791052710178, 1)"><svg xmlns:x="http://ns.adobe.com/Extensibility/1.0/" xmlns:i="http://ns.adobe.com/AdobeIllustrator/10.0/" xmlns:graph="http://ns.adobe.com/Graphs/1.0/" xmlns="http://www.w3.org/2000/svg" xmlns:xlink="http://www.w3.org/1999/xlink" xmlns:a="http://ns.adobe.com/AdobeSVGViewerExtensions/3.0/" version="1.0" x="0" y="0" viewBox="1.0190001726150513 14.23800277709961 97.98100280761719 78.36900329589844" enable-background="new 0 0 100 100" xml:space="preserve" height="78.36900329589844" width="97.98100280761719" class="icon-none" data-fill-palette-color="accent" id="none"><g fill="#d9bca9" data-fill-palette-color="accent"><path d="M97.943 37.106c-1.031-1.671-3.146-2.237-4.275-2.237-1.131 0-1.377 1.205-1.377 1.205v4.153c0 0 0.002 0.007 0.002 0.018l-1.199 0.597c-0.91-4.512-2.02-9.807-2.998-13.875-2.297-9.542-3.865-12.729-5.523-12.729h-2.594c-0.51 0-0.953 0.172-1.225 0.434 0 0-23.715-0.433-28.721-0.434-0.004 0-0.006 0-0.01 0-0.008 0-0.018 0-0.026 0-0.004 0-0.006 0-0.009 0-5.007 0-28.72 0.434-28.72 0.434-0.271-0.262-0.718-0.434-1.226-0.434h-2.595c-1.658 0-3.228 3.187-5.523 12.729-0.978 4.068-2.088 9.363-2.998 13.875l-1.201-0.597c0.002-0.011 0.003-0.018 0.003-0.018v-4.153c0 0-0.246-1.205-1.376-1.205-1.13 0-3.244 0.565-4.276 2.237s-1.057 2.825-1.057 3.98c0 1.156 0.614 3.612 2.752 4.375 2.138 0.762 3.146 0.639 3.146-0.024 0-0.024 0-0.054 0.003-0.087l1.065 0.224c-0.019 0.091-0.037 0.188-0.054 0.275 2.195 1.263 5.36 2.494 9.369 2.494h32.685 32.728c4.01 0 7.174-1.231 9.371-2.494-0.02-0.087-0.037-0.184-0.055-0.275l1.064-0.224c0.004 0.033 0.004 0.063 0.004 0.088 0 0.663 1.006 0.786 3.145 0.024C98.385 44.699 99 42.243 99 41.087 99 39.932 98.977 38.778 97.943 37.106zM17.186 47.303c-1.612 0-2.918-1.306-2.918-2.917 0-1.612 1.307-2.918 2.918-2.918 1.611 0 2.917 1.306 2.917 2.918C20.103 45.997 18.797 47.303 17.186 47.303zM50.01 40.521c-5.818-0.038-14.405-0.176-22.979-0.613-9.131-0.464-11.542-0.719-12.12-3.63-1.33-6.7 2.659-17.642 2.659-17.642s10.845-1.022 19.174-1.233c3.876-0.098 8.94-0.105 13.246-0.083v0c0.007 0 0.015 0 0.021 0 0.008 0 0.016 0 0.023 0v0c4.305-0.021 9.369-0.015 13.246 0.083 8.326 0.211 19.172 1.233 19.172 1.233s3.988 10.942 2.658 17.642c-0.576 2.911-2.988 3.166-12.119 3.63C64.414 40.346 55.828 40.484 50.01 40.521zM82.834 47.303c-1.609 0-2.914-1.306-2.914-2.917 0-1.612 1.305-2.918 2.914-2.918 1.613 0 2.922 1.306 2.922 2.918C85.756 45.997 84.447 47.303 82.834 47.303z" fill="#d9bca9" data-fill-palette-color="accent"></path><path d="M77.955 57.33c0.203 0 0.402 0.014 0.596 0.035 1.26-1.996 3.355-3.244 5.551-4.533 0.961-0.562 1.955-1.146 2.885-1.805 0.693-0.488 1.078-1.455 1.256-2.672-1.609 0.467-3.455 0.774-5.525 0.774H50.033h-0.044H17.304c-2.069 0-3.915-0.307-5.527-0.774 0.18 1.217 0.566 2.184 1.257 2.672 0.931 0.658 1.925 1.24 2.887 1.805 2.194 1.289 4.29 2.539 5.55 4.535 0.205-0.023 0.414-0.037 0.626-0.037 2.496 0 4.52 1.574 4.52 3.516 0 0.305-0.055 0.598-0.146 0.875 1.511 0 45.825 0 47.112 0-0.092-0.277-0.146-0.57-0.146-0.875C73.436 58.904 75.461 57.33 77.955 57.33z" fill="#d9bca9" data-fill-palette-color="accent"></path><path d="M92.289 46.666c-0.922 0.516-2.002 1.017-3.23 1.433-0.184 1.578-0.658 2.893-1.619 3.571-0.955 0.678-1.963 1.27-2.941 1.842-1.988 1.168-3.895 2.301-5.092 4.008 1.783 0.469 3.068 1.781 3.068 3.326 0 0.334-0.064 0.654-0.174 0.959 5.41 0.199 7.365 0.842 8.064 1.242l-0.15 0.857c-0.051-0.029-0.098-0.066-0.133-0.119-0.008-0.01-1.174-0.977-8.197-1.205-0.775 1.062-2.244 1.781-3.93 1.781-1.705 0-3.191-0.734-3.959-1.82-3.283 0.006-6.91-0.002-6.91-0.002-0.193 1.18-0.887 2.059-1.715 2.059H50.033h-0.044H34.65c-0.829 0-1.522-0.879-1.717-2.059 0 0-3.603 0.008-6.876 0.002-0.77 1.086-2.253 1.82-3.96 1.82-1.686 0-3.154-0.719-3.931-1.783-7.051 0.229-8.219 1.195-8.227 1.207-0.036 0.053-0.083 0.09-0.134 0.119l-0.15-0.857c0.701-0.402 2.661-1.043 8.096-1.244-0.11-0.305-0.174-0.623-0.174-0.957 0-1.539 1.274-2.846 3.044-3.318-1.198-1.711-3.105-2.846-5.099-4.016-0.975-0.572-1.984-1.164-2.942-1.842-0.958-0.678-1.434-1.995-1.618-3.571-1.229-0.417-2.308-0.917-3.229-1.433-3.264 4.383-2.818 16.61-0.154 25.125-0.004 0.049-0.013 0.096-0.013 0.15v18.012c0 1.465 2.113 2.654 4.718 2.654h0.794c2.606 0 4.718-1.189 4.718-2.654v-5.785h32.192 0.044 32.191v5.785c0 1.465 2.111 2.654 4.719 2.654h0.795c2.604 0 4.715-1.189 4.715-2.654V71.941c0-0.055-0.006-0.102-0.01-0.15C95.107 63.275 95.553 51.049 92.289 46.666zM21.655 77.801c-1.477 0-2.675-1.195-2.675-2.676 0-1.475 1.198-2.672 2.675-2.672 1.478 0 2.674 1.197 2.674 2.672C24.33 76.605 23.133 77.801 21.655 77.801zM71.207 74.771c-0.701 2.908-2.924 4.512-5.414 4.512h-15.76-0.044H34.229c-2.492 0-4.712-1.604-5.414-4.512 0 0-1.754-4.512 4.511-4.512h16.662 0.044 16.66C72.959 70.26 71.207 74.771 71.207 74.771zM78.363 77.801c-1.475 0-2.672-1.195-2.672-2.676 0-1.475 1.197-2.672 2.672-2.672 1.48 0 2.678 1.197 2.678 2.672C81.041 76.605 79.844 77.801 78.363 77.801z" fill="#d9bca9" data-fill-palette-color="accent"></path></g></svg></g></g></svg></g><defs><mask id="c0b7b23f-3ab9-4fa5-8a6c-93ccacc759f8"><rect width="640" height="400" fill="white"></rect><rect width="348.05760000000004" height="42.4163056686687" fill="black" y="102.39184716566564" x="23.731199999999973" id="transform-me"></rect></mask></defs></svg><rect width="395.52" height="247.2" fill="none" stroke="none" visibility="hidden"></rect></g></svg></g></svg>